<svg xmlns="http://www.w3.org/2000/svg" viewBox="0 0 64 64"><g id="_07-Commerce_and_shopping" data-name="07-Commerce and shopping"><polygon points="54 45.33 51.33 48 46.1 42.76 43 48 38 32 54 37 48.76 40.1 54 45.33" style="fill:#fff"/><polygon points="63 11 63 58 5 58 5 53 59 53 59 14 59 11 63 11" style="fill:#202024"/><polygon points="59 11 59 14 1 14 1 6 59 6 59 11" style="fill:#313131"/><path d="M26.5,36A1.5,1.5,0,1,0,28,37.5,1.5,1.5,0,0,0,26.5,36Zm7,0A1.5,1.5,0,1,0,35,37.5,1.5,1.5,0,0,0,33.5,36ZM59,14V53H1V14ZM51.33,48,54,45.33,48.76,40.1,54,37,38,32l5,16,3.1-5.24Z" style="fill:#e04323"/><rect x="1" y="6" width="58" height="2" style="fill:#262626"/><path d="M51.33,48H19A12,12,0,0,1,7,36V14H1V53H59V48Z" style="fill:#cd2b15"/><polygon points="49.274 40.613 52 39 51.097 38.718 48.76 40.1 49.274 40.613" style="fill:#cd2b15"/><polygon points="44.613 45.274 49.33 50 51.33 48 46.1 42.76 44.613 45.274" style="fill:#cd2b15"/><polygon points="36 34 41 50 42.718 47.097 38.909 34.909 36 34" style="fill:#cd2b15"/><polygon points="38 32 43 48 46.1 42.76 51.33 48 52.665 46.665 38 32" style="fill:#edf4fa"/><rect x="4" y="9" width="2" height="2" style="fill:#fff"/><rect x="8" y="9" width="2" height="2" style="fill:#fff"/><rect x="12" y="9" width="2" height="2" style="fill:#fff"/><rect x="54" y="9" width="2" height="2" style="fill:#a8b7d4"/><rect x="54" y="17" width="2" height="2" style="fill:#fff"/><rect x="54" y="21" width="2" height="2" style="fill:#fff"/><circle cx="26.5" cy="37.5" r="1.5" style="fill:#fff"/><circle cx="33.5" cy="37.5" r="1.5" style="fill:#fff"/><path d="M35.071,25.505l-7-1-.142.99,6.571.939V28.68a.5.5,0,0,1-.4.49l-6.681,1.337-1.259-6.821A1.507,1.507,0,0,0,24.691,22.5H23v1h1.691a.5.5,0,0,1,.487.381L26.437,30.7l-.431.086a1.874,1.874,0,0,0,.366,3.711H35v-1H26.372a.873.873,0,0,1-.169-1.73l8.091-1.619A1.5,1.5,0,0,0,35.5,28.68V26A.5.5,0,0,0,35.071,25.505Z" style="fill:#fff"/></g></svg>